{"title":"Solo 2013 HDRIP x264 AC3 UNiQUE","uid":9084838,"size":1501683299,"categoryP":"video","categoryS":"movies","magnet":"?xt=urn:btih:0547bb6d870c86412dc86c48d2df1c4e1adc24d6&amp;dn=Solo+2013+HDRIP+x264+AC3+UNiQUE&amp;tr=udp%3A%2F%2Ftracker.openbittorrent.com%3A80&amp;tr=udp%3A%2F%2Fopen.demonii.com%3A1337&amp;tr=udp%3A%2F%2Ftracker.coppersurfer.tk%3A6969&amp;tr=udp%3A%2F%2Fexodus.desync.com%3A6969","seeders":1,"leechers":0,"uploader":"xxxlavalxxx","files":-1,"time":1382474528,"description":" &lt;a href=&quot;http://www.imdb.com/title/tt2374196/&quot; rel=&quot;nofollow&quot; target=&quot;_NEW&quot;&gt;http://www.imdb.com/title/tt2374196/&lt;/a&gt;\n\n\n\nA teenage girl is terrorized when she spends two nights alone on a remote island as part of her camp counselor initiation.\n\nDirector: Isaac Cravit\nWriter: Isaac Cravit\nStars: Annie Clark, Daniel Kash, Richard Clarkin\nGenres: Mystery | Thriller\nCountry: Canada\nLanguage: English\n\n\n\nSource Itunes 1080p\n\nGeneral\nFormat                                   : Matroska\nFormat version                           : Version 2\nFile size                                : 1.40 GiB\nDuration                                 : 1h 23mn\nOverall bit rate mode                    : Variable\nOverall bit rate                         : 2 411 Kbps\nEncoded date                             : UTC 2013-10-22 14:55:29\nWriting application                      : mkvmerge v6.4.1 ('Omega Point'wink.gif built on Sep 16 2013 22:05:10\nWriting library                          : libebml v1.3.0 + libmatroska v1.4.1\n\nVideo\nID                                       : 1\nFormat                                   : AVC\nFormat/Info                              : Advanced Video Codec\nFormat profile                           : &lt;a class=&quot;__cf_email__&quot; href=&quot;/cdn-cgi/l/email-protection&quot; data-cfemail=&quot;7a32131d123a364e544b&quot;&gt;[email&amp;#160;protected]&lt;/a&gt;&lt;script cf-hash='f9e31' type=&quot;text/javascript&quot;&gt;\n/* &lt;![CDATA[ */!function(){try{var t=&quot;currentScript&quot;in document?document.currentScript:function(){for(var t=document.getElementsByTagName(&quot;script&quot;),e=t.length;e--;)if(t[e].getAttribute(&quot;cf-hash&quot;))return t[e]}();if(t&amp;&amp;t.previousSibling){var e,r,n,i,c=t.previousSibling,a=c.getAttribute(&quot;data-cfemail&quot;);if(a){for(e=&quot;&quot;,r=parseInt(a.substr(0,2),16),n=2;a.length-n;n+=2)i=parseInt(a.substr(n,2),16)^r,e+=String.fromCharCode(i);e=document.createTextNode(e),c.parentNode.replaceChild(e,c)}}}catch(u){}}();/* ]]&gt; */&lt;/script&gt;\nFormat settings, CABAC                   : Yes\nFormat settings, ReFrames                : 3 frames\nCodec ID                                 : V_MPEG4/ISO/AVC\nDuration                                 : 1h 23mn\nBit rate mode                            : Variable\nBit rate                                 : 2 025 Kbps\nMaximum bit rate                         : 40.0 Mbps\nWidth                                    : 720 pixels\nHeight                                   : 304 pixels\nDisplay aspect ratio                     : 2.35:1\nFrame rate                               : 23.976 fps\nColor space                              : YUV\nChroma subsampling                       : 4:2:0\nBit depth                                : 8 bits\nScan type                                : Progressive\nBits/(Pixel*Frame)                       : 0.386\nStream size                              : 1.15 GiB (82%)\nWriting library                          : x264 core 138 r2358 9e941d1\nDefault                                  : Yes\nForced                                   : No\n\nAudio\nID                                       : 2\nFormat                                   : AC-3\nFormat/Info                              : Audio Coding 3\nMode extension                           : CM (complete main)\nFormat settings, Endianness              : Big\nCodec ID                                 : A_AC3\nDuration                                 : 1h 23mn\nBit rate mode                            : Constant\nBit rate                                 : 384 Kbps\nChannel(s)                               : 6 channels\nChannel positions                        : Front: L C R, Side: L R, LFE\nSampling rate                            : 48.0 KHz\nBit depth                                : 16 bits\nCompression mode                         : Lossy\nStream size                              : 228 MiB (16%)\nLanguage                                 : English\nDefault                                  : Yes\nForced                                   : No\n\n\n &lt;a href=&quot;\nhttp://i.imgur.com/bOuidta.jpg&quot; rel=&quot;nofollow&quot; target=&quot;_NEW&quot;&gt;\nhttp://i.imgur.com/bOuidta.jpg&lt;/a&gt; &lt;a href=&quot;\nhttp://i.imgur.com/M6n9k1T.jpg&quot; rel=&quot;nofollow&quot; target=&quot;_NEW&quot;&gt;\nhttp://i.imgur.com/M6n9k1T.jpg&lt;/a&gt;","torrent":{"xt":"urn:btih:0547bb6d870c86412dc86c48d2df1c4e1adc24d6","amp;dn":"Solo+2013+HDRIP+x264+AC3+UNiQUE","amp;tr":["udp%3A%2F%2Ftracker.openbittorrent.com%3A80","udp%3A%2F%2Fopen.demonii.com%3A1337","udp%3A%2F%2Ftracker.coppersurfer.tk%3A6969","udp%3A%2F%2Fexodus.desync.com%3A6969"],"infoHash":"0547bb6d870c86412dc86c48d2df1c4e1adc24d6","infoHashBuffer":{"type":"Buffer","data":[5,71,187,109,135,12,134,65,45,200,108,72,210,223,28,78,26,220,36,214]},"announce":[],"urlList":[]}}